<?xml version="1.0" encoding="utf-8"?>
<!-- Generator: Adobe Illustrator 24.3.0, SVG Export Plug-In . SVG Version: 6.00 Build 0)  -->
<svg version="1.1" id="Layer_1" xmlns="http://www.w3.org/2000/svg" xmlns:xlink="http://www.w3.org/1999/xlink" x="0px" y="0px"
	 viewBox="0 0 159.6 63.1" style="enable-background:new 0 0 159.6 63.1;" xml:space="preserve">
<style type="text/css">
	.st0{fill:#EDEDED;}
	.st1{fill:#D2242A;}
	.st2{fill:#CACCCE;}
	.st3{fill:#AAACAE;}
	.st4{fill:#D32C2C;}
</style>
<g>
	<path class="st0" d="M105.1,62.9c-2.9-0.4-5.6-1.2-8-2.8c-2.1-1.4-3.3-3.4-3.7-5.9c-0.2-1.8,0.3-3.5,1.4-5.1c0.9-1.4,2.2-2.3,3.7-3
		c0.5-0.3,0.5-0.3,0.1-0.7c-0.7-0.7-1.2-1.6-1.4-2.6c-0.3-1.8,0.2-3.4,1.4-4.7c0.6-0.7,1.3-1.3,2-1.8c0.6-0.5,0.6-0.4,0.1-0.9
		c-0.9-0.7-1.8-1.5-2.5-2.4c-1.4-1.6-2.1-3.5-2.3-5.5c-0.4-3.1,0.1-6,1.8-8.7c1.8-2.7,4.4-4.4,7.5-5.1c3-0.7,6-0.8,9,0
		c0.7,0.2,1.4,0.4,2,0.7c0.7,0.3,1.2,0.3,1.7-0.2c1.6-1.6,3.6-2.3,5.8-2.5c1.1-0.1,2.3-0.1,3.5-0.2c0.3,0,0.7,0.1,1.1,0.1
		c0.4,0,0.4,0.2,0.3,0.6c-0.5,2-1,4-1.6,6c-0.2,0.7-0.3,0.7-1,0.6c-1-0.1-2-0.2-3-0.2c-0.8,0-0.8,0.1-0.4,0.8
		c1.6,2.5,2.1,5.3,1.7,8.3c-0.6,4.5-3,7.6-7.2,9.4c-3.2,1.4-6.6,1.5-10.1,1c-0.4-0.1-0.6-0.1-0.8,0.5c-0.3,1.1,0,2,1,2.5
		c1.1,0.6,2.3,0.9,3.5,1.1c2.6,0.4,5.2,0.8,7.8,1.2c1.6,0.3,3.1,0.7,4.5,1.4c3.2,1.6,4.7,4,4.6,7.4c-0.1,2.7-1.4,5-3.5,6.7
		c-2.5,2-5.4,3.1-8.6,3.6c-0.7,0.1-1.3,0.2-2,0.3c-0.6,0.1-1.3-0.3-1.9,0.2c-1.5,0-3,0-4.6,0C106.4,62.7,105.8,62.9,105.1,62.9z
		 M110.6,56c1.6,0,3.1,0,4.6-0.5c0.7-0.3,1.3-0.7,1.9-1.1c0.4-0.3,0.5-0.7,0.5-1.2c0-0.9-0.4-1.4-1.1-1.9c-1.1-0.7-2.4-0.9-3.6-1.2
		c-2.8-0.5-5.8-0.5-8.5-1.4c-0.3-0.1-0.6-0.1-0.9,0.2c-1.2,1.6-1.4,3.6,0.1,5c0.6,0.5,1.3,1,2,1.3C107.3,55.9,109,56,110.6,56z
		 M110.2,30.8c1.2,0.1,2.4-0.3,3.3-1.3c2.1-2.4,1.3-6.5-1.2-8c-1.9-1.1-5.5-0.9-6.6,2.3c-0.4,1.2-0.4,2.5-0.1,3.7
		C106.2,29.2,107.8,30.9,110.2,30.8z"/>
	<path class="st1" d="M31,29.3C27.6,19.5,23.2,9.9,20.6,0c0.4,0,0.8,0,1.2,0c3.1,2.8,7.9,4.5,9.2,8.8c0.9,6.8,0.2,13.7,0.3,20.5
		C31.2,29.3,31.1,29.3,31,29.3z"/>
	<path class="st2" d="M105.1,62.9c0.6,0,1.3-0.2,1.9,0.2c-0.6,0-1.3,0-1.9,0C105.1,63,105.1,63,105.1,62.9z"/>
	<path class="st3" d="M111.6,63.1c0.6-0.5,1.3-0.1,1.9-0.2c0,0.1,0,0.2,0,0.2C112.9,63.1,112.2,63.1,111.6,63.1z"/>
	<path class="st0" d="M38.2,30.5c0-5,0-10.1,0-15.1c0-0.3,0-0.6,0-0.8c0-0.3,0.2-0.5,0.5-0.5c0.2,0,0.3,0,0.5,0c2.4,0,4.7,0,7.1,0
		c0.8,0,0.8,0,1,0.8c0.2,0.7,0.4,1.4,0.6,2.1c0.1,0.4,0.2,0.4,0.6,0.2c0.8-0.5,1.6-1.1,2.4-1.5c2.6-1.5,5.4-2.4,8.4-2.3
		c3.2,0.2,5.9,1.2,7.9,3.9c0.5,0.7,0.5,0.7,1.2,0.2c2.3-1.7,4.7-3,7.5-3.6c2.7-0.7,5.5-0.6,8.1,0.4c3.4,1.2,5.4,3.6,6.3,7.1
		c0.4,1.5,0.5,3.1,0.5,4.6c0,6.7,0,13.4,0,20.2c0,0.2,0,0.3,0,0.5c0,0.4-0.2,0.5-0.6,0.5c-3.1,0-6.2,0-9.4,0c-0.5,0-0.7-0.1-0.6-0.6
		c0-0.4,0-0.8,0-1.2c0-6,0-12.1,0-18.1c0-0.8-0.2-1.6-0.4-2.3c-0.4-1.4-1.5-2.1-2.8-2.2c-2.3-0.3-4.4,0.3-6.4,1.5
		c-0.5,0.3-0.8,0.7-0.8,1.3c0.1,1.2,0,2.3,0,3.5c0,5.6,0,11.2,0,16.8c0,0.2,0,0.5,0,0.7c0,0.5-0.1,0.7-0.6,0.6c-0.2,0-0.5,0-0.7,0
		c-2.6,0-5.1,0-7.7,0c-1.5,0-1.5,0-1.5-1.5c0-5.8,0-11.5,0-17.3c0-1.1-0.2-2.1-0.4-3.2c-0.4-1.8-1.7-2.4-3-2.6
		c-2.3-0.2-4.3,0.4-6.3,1.5c-0.6,0.3-0.8,0.7-0.8,1.4c0,6.7,0,13.4,0,20c0,1.5,0,1.5-1.5,1.5c-2.7,0-5.4,0-8,0c-1.1,0-1,0-1-1
		C38.2,40.7,38.2,35.6,38.2,30.5z"/>
	<path class="st0" d="M159.1,33.7c0,2.6,0,5.3,0,7.9c0,1.5,0.1,3,0.4,4.5c0.1,0.6,0.1,0.7-0.6,0.7c-2.4,0-4.9,0-7.3,0
		c-0.4,0-0.7-0.1-0.8-0.5c-0.1-0.3-0.3-0.5-0.4-0.7c-0.3-0.5-0.6-0.9-0.8-1.4c-0.4,0.3-0.8,0.6-1.3,0.9c-1.7,1.2-3.7,2-5.8,2.3
		c-2.1,0.3-4,0.1-6-0.5c-3.7-1.2-6-3.8-6.9-7.6c-0.4-1.8-0.4-3.7,0.1-5.6c0.7-2.5,2.3-4.3,4.5-5.5c2.2-1.3,4.7-2,7.2-2.2
		c1.9-0.2,3.8-0.2,5.7-0.3c1.7-0.1,1.6-0.2,1.3-1.7c-0.3-1.6-1.9-2.6-3.9-2.8c-3.1-0.3-6,0.2-8.9,1.4c-0.2,0.1-0.4,0.2-0.5,0.2
		c-0.3,0.1-0.6,0.1-0.8-0.3c-0.9-1.9-1.8-3.7-2.8-5.6c-0.3-0.5,0-0.7,0.4-0.9c1.9-0.9,3.9-1.6,5.9-2.1c3-0.7,6-0.9,9-0.7
		c2.3,0.1,4.5,0.6,6.5,1.6c3.1,1.6,4.8,4.2,5.3,7.6c0.2,1.3,0.2,2.7,0.3,4C159.2,28.9,159.1,31.3,159.1,33.7z M148.6,35.3
		c0-0.8,0-1.7,0-2.5c0-0.4-0.1-0.6-0.6-0.6c-1.8,0.2-3.6,0.2-5.3,0.5c-2,0.4-3,1.6-2.8,3.8c0.1,1.2,0.9,2.3,2.1,2.6
		c2.1,0.6,4.2,0.3,6.2-0.6c0.3-0.1,0.5-0.4,0.5-0.7C148.6,36.9,148.6,36.1,148.6,35.3z"/>
	<path class="st1" d="M31,30.4c-9.7,3.3-19.4,6.7-29.1,9.9C1.3,40.5-0.2,41,0,39.9c2.7-3.7,5.2-9,10.2-9.5c-4.5-0.8-6.8-5.1-9.5-8.5
		C-4.9,15.8,28.6,30,31,30.2C31,30.3,31,30.4,31,30.4z"/>
	<path class="st4" d="M31,30.4c0-0.1,0-0.1,0-0.2c0-0.3,0-0.6,0-0.9c0.1,0,0.2,0,0.4,0c0,0.7,0.1,1.4,0.1,2.2c0,5.9,0,11.7,0,17.6
		c0,2.9-1,5.3-3.5,6.9c-1.7,1.2-3.3,2.5-5,3.7c-0.4,0.3-0.7,0.5-1.1,0.7c-0.3,0.1-0.8,0.2-1,0c-0.2-0.2-0.2-0.6-0.2-1
		c0-0.3,0.2-0.7,0.3-1c1.2-3.3,2.4-6.6,3.6-9.9c2.1-5.7,4.2-11.5,6.3-17.3C31,31.1,31.5,30.8,31,30.4z"/>
	<path class="st4" d="M9.5,30c0.1,0,0.3,0,0.4,0c0.1,0.1,0.2,0.2,0.3,0.3c-0.1,0-0.3,0.1-0.4,0.1c-0.1,0-0.2,0-0.2,0
		C9.6,30.3,9.5,30.2,9.5,30z"/>
</g>
</svg>
