<?xml version="1.0" encoding="utf-8"?>
<!-- Generator: Adobe Illustrator 26.0.3, SVG Export Plug-In . SVG Version: 6.00 Build 0)  -->
<svg version="1.1"
	 id="ee17faca-f0cc-4256-93ce-299e9969745d" inkscape:version="1.0 (4035a4fb49, 2020-05-01)" xmlns:cc="http://creativecommons.org/ns#" xmlns:dc="http://purl.org/dc/elements/1.1/" xmlns:inkscape="http://www.inkscape.org/namespaces/inkscape" xmlns:rdf="http://www.w3.org/1999/02/22-rdf-syntax-ns#" xmlns:sodipodi="http://sodipodi.sourceforge.net/DTD/sodipodi-0.dtd" xmlns:svg="http://www.w3.org/2000/svg"
	 xmlns="http://www.w3.org/2000/svg" xmlns:xlink="http://www.w3.org/1999/xlink" x="0px" y="0px" viewBox="0 0 117.4 106.3"
	 style="enable-background:new 0 0 117.4 106.3;" xml:space="preserve">
<style type="text/css">
	.st0{fill:#FFFFFF;}
</style>
<g id="a1c40d52-7b52-4186-894b-00621b5e80de_00000083070898367704685470000003661599142020235144_">
	<path id="a7ac9ef6-cf1c-4386-9027-f7d83f0ba115_00000057829217225736891330000014190599687731083429_" class="st0" d="M58.9,0
		C58.9,0,5.1,18.6,4,19.2c-1.9,1-3.2,2.7-3.8,4.8C0,24.7,0,27.7,0,53.1c0,31.2-0.2,29,0.7,30.8c0.8,1.3,1.8,2.4,3.1,3.2
		c19.3,6.8,54.8,19.2,54.8,19.2s39.6-12.9,54.7-19.2c1.4-0.7,2.6-1.9,3.4-3.2c0.9-1.8,0.6,0.5,0.6-30.7s0.2-29.2-0.7-31
		c-0.8-1.2-1.9-2.2-3.2-2.9C112.8,18.9,58.9,0,58.9,0z"/>
</g>
<g id="a1c40d52-7b52-4186-894b-00621b5e80de">
	<path id="a7ac9ef6-cf1c-4386-9027-f7d83f0ba115" d="M58.9,0C58.9,0,5.1,18.6,4,19.2c-1.9,1-3.2,2.7-3.8,4.8C0,24.7,0,27.7,0,53.1
		C0,84.4-0.2,82.2,0.7,84c0.8,1.3,1.8,2.4,3.1,3.2c19.3,6.8,54.8,19.2,54.8,19.2s39.6-12.9,54.7-19.2c1.4-0.7,2.6-1.9,3.4-3.2
		c0.9-1.8,0.6,0.5,0.6-30.7s0.2-29.2-0.7-31c-0.8-1.2-1.9-2.2-3.2-2.9C112.8,18.9,58.9,0,58.9,0z M76.2,11.3
		c1.6,0.1,3.2,0.5,4.7,1.1l29.9,10.7v11l-30.2-7.6c-1.1-0.3-2.2-0.3-3.2,0c-0.9,0.3-1.7,0.8-2.2,1.6c-0.6,0.9-1.1,1.9-1.3,3
		c-0.3,1.3-0.4,2.7-0.4,4c0,1.3,0.1,2.6,0.4,3.8c0.2,1.2,0.7,2.3,1.3,3.3c0.6,1,1.5,1.9,2.5,2.5c0.6,0.3,1.2,0.6,1.8,0.7
		c0.7,0.2,1.5,0.3,2.2,0.4l13,0.8c1.3,0,2.5,0.2,3.8,0.4c1.2,0.3,2.3,0.6,3.4,1.1c2.1,0.9,4,2.2,5.5,3.9c0.8,0.8,1.4,1.7,2,2.7
		c0.6,1,1.1,2,1.5,3.1c0.4,1.1,0.7,2.3,0.9,3.5c0.2,1.3,0.3,2.5,0.3,3.8c0,2.6-0.4,5.1-1.2,7.6c-0.4,1.2-0.8,2.3-1.4,3.5
		c-0.5,1.1-1.2,2.1-1.9,3.2c-1.4,2-3.1,3.8-5.1,5.2c-1,0.7-2.1,1.4-3.2,2c-1.2,0.6-2.4,1.1-3.6,1.5L64.7,99V82.8l31.1-7.1
		c1.2-0.3,2.4-0.7,3.4-1.4c0.9-0.6,1.7-1.3,2.4-2.2c0.6-0.9,1.1-1.8,1.4-2.8c0.3-1.1,0.5-2.2,0.4-3.4c0-1-0.1-2-0.4-3
		c-0.3-0.9-0.7-1.8-1.4-2.5c-0.7-0.8-1.7-1.3-2.7-1.7c-1.4-0.4-2.8-0.6-4.2-0.5l-12.9,0.7c-1.7,0.1-3.4,0-5-0.4
		c-1.4-0.3-2.8-0.9-4-1.7c-1.2-0.7-2.3-1.6-3.2-2.7c-0.9-1.1-1.7-2.3-2.4-3.5c-0.7-1.3-1.3-2.7-1.7-4.2c-0.5-1.5-0.8-3-1.1-4.5
		c-0.5-3-0.8-6-0.8-9.1c0-2.8,0.2-5.5,0.7-8.3c0.2-1.4,0.6-2.8,1-4.2c0.4-1.3,1-2.6,1.6-3.8c0.6-1.1,1.4-2.1,2.3-3
		C71.1,12,73.6,11.1,76.2,11.3z M40.2,12.3c1.3,0,2.6,0.2,3.9,0.7c1.2,0.5,2.2,1.2,3.1,2.1c0.9,0.9,1.8,1.9,2.4,3.1
		c0.7,1.2,1.3,2.5,1.8,3.8c0.5,1.4,0.9,2.8,1.2,4.2c0.6,2.7,0.8,5.5,0.8,8.3c0,2.5-0.2,5-0.5,7.5c-0.3,2.6-0.9,5.2-1.7,7.7
		c-0.4,1.3-0.9,2.5-1.5,3.7c-0.6,1.1-1.2,2.2-2,3.2c-0.8,1-1.7,1.9-2.6,2.7c-1,0.8-2.2,1.5-3.4,2c2.3,6.2,4.6,12.5,6.7,18.9
		s4.2,12.7,6.2,19l-10.7-3.8c-1.9-5.7-3.9-11.4-6-17s-4.3-11.3-6.6-16.9l-14.4-1.2c-0.4-0.1-0.7,0-1,0.3c-0.3,0.3-0.4,0.8-0.4,1.2
		v23.6L5.6,82V58.9c0-1.4,0.1-2.8,0.5-4.2c0.3-1.1,0.8-2.1,1.6-2.9c0.7-0.8,1.7-1.4,2.7-1.8c1.3-0.4,2.6-0.6,3.9-0.7l21.5-0.8
		c0.6,0,1.3-0.1,1.9-0.3c0.6-0.2,1.1-0.5,1.6-0.8c1-0.7,1.8-1.6,2.4-2.7c0.6-1.2,1.1-2.5,1.4-3.8c0.3-1.4,0.5-2.9,0.5-4.4
		c0-1.4-0.2-2.8-0.5-4.2c-0.3-1.2-0.7-2.3-1.4-3.2c-0.9-1.3-2.4-2.2-4-2.2c-0.6,0-1.3,0-1.9,0.2L5.6,33.8V23.6l30-10.5
		C37,12.6,38.6,12.3,40.2,12.3L40.2,12.3z"/>
</g>
</svg>
